<svg xmlns="http://www.w3.org/2000/svg" version="1.1" xmlns:xlink="http://www.w3.org/1999/xlink" xmlns:svgjs="http://svgjs.com/svgjs" width="1294" height="688" preserveAspectRatio="none" viewBox="0 0 1294 688"><g mask="url(&quot;#SvgjsMask1132&quot;)" fill="none"><rect width="1294" height="688" x="0" y="0" fill="url(#SvgjsLinearGradient1133)"></rect><circle r="57.333333333333336" cx="476.89" cy="597.91" fill="rgba(235, 96, 25, 1)"></circle><path d="M318.6 138.54L305.83 139.52 302.08 127.27 289.31 128.25 285.56 116 272.79 116.97 269.03 104.73M323.11 131.93L310.34 132.91 306.59 120.66 293.82 121.64 290.06 109.39 277.29 110.37 273.54 98.12" stroke="rgba(248, 164, 112, 1)" stroke-width="1.77" stroke-dasharray="3, 3"></path><path d="M113.85 655.68a5.6 5.6 0 1 0-7.27 8.52 5.6 5.6 0 1 0 7.27-8.52zM103.46 667.85a5.6 5.6 0 1 0-7.27 8.52 5.6 5.6 0 1 0 7.27-8.52zM93.07 680.02a5.6 5.6 0 1 0-7.27 8.52 5.6 5.6 0 1 0 7.27-8.52zM82.68 692.19a5.6 5.6 0 1 0-7.27 8.51 5.6 5.6 0 1 0 7.27-8.51zM122.46 620.96a5.6 5.6 0 1 0-7.27 8.51 5.6 5.6 0 1 0 7.27-8.51zM112.07 633.12a5.6 5.6 0 1 0-7.27 8.52 5.6 5.6 0 1 0 7.27-8.52zM101.68 645.29a5.6 5.6 0 1 0-7.27 8.52 5.6 5.6 0 1 0 7.27-8.52zM91.29 657.46a5.6 5.6 0 1 0-7.27 8.52 5.6 5.6 0 1 0 7.27-8.52zM131.07 586.23a5.6 5.6 0 1 0-7.27 8.52 5.6 5.6 0 1 0 7.27-8.52zM120.68 598.4a5.6 5.6 0 1 0-7.27 8.52 5.6 5.6 0 1 0 7.27-8.52zM110.29 610.57a5.6 5.6 0 1 0-7.27 8.51 5.6 5.6 0 1 0 7.27-8.51zM99.9 622.73a5.6 5.6 0 1 0-7.27 8.52 5.6 5.6 0 1 0 7.27-8.52z" fill="rgba(235, 96, 25, 1)"></path><path d="M349.08 716.9599999999999 L460.1 778.5L449.5957617544885 702.7242382455115z" stroke="rgba(235, 96, 25, 1)" stroke-width="1.16" stroke-dasharray="3, 3"></path><path d="M555.7 324.57L560.68 336.36 550.26 343.81 555.24 355.61 544.82 363.06 549.8 374.86 539.38 382.3M548 322.39L552.98 334.19 542.56 341.64 547.54 353.43 537.12 360.88 542.1 372.68 531.69 380.13M540.3 320.21L545.28 332.01 534.87 339.46 539.84 351.26 529.43 358.71 534.41 370.51 523.99 377.95" stroke="rgba(235, 96, 25, 1)" stroke-width="1"></path><rect width="439.2" height="439.2" clip-path="url(&quot;#SvgjsClipPath1134&quot;)" x="-88.26" y="46.61" fill="url(#SvgjsPattern1135)" transform="rotate(173.01, 131.34, 266.21)"></rect><rect width="246.96" height="246.96" clip-path="url(&quot;#SvgjsClipPath1136&quot;)" x="897.74" y="-41.66" fill="url(#SvgjsPattern1137)" transform="rotate(224.13, 1021.22, 81.82)"></rect><rect width="84" height="84" clip-path="url(&quot;#SvgjsClipPath1138&quot;)" x="474.4" y="73.42" fill="url(#SvgjsPattern1139)" transform="rotate(226.58, 516.4, 115.42)"></rect><path d="M215.46 554.91a5.6 5.6 0 1 0 11.19-0.37 5.6 5.6 0 1 0-11.19 0.37zM231.45 554.38a5.6 5.6 0 1 0 11.19-0.37 5.6 5.6 0 1 0-11.19 0.37zM247.44 553.85a5.6 5.6 0 1 0 11.19-0.37 5.6 5.6 0 1 0-11.19 0.37zM263.43 553.32a5.6 5.6 0 1 0 11.2-0.37 5.6 5.6 0 1 0-11.2 0.37zM184 571.95a5.6 5.6 0 1 0 11.2-0.37 5.6 5.6 0 1 0-11.2 0.37zM199.99 571.43a5.6 5.6 0 1 0 11.2-0.37 5.6 5.6 0 1 0-11.2 0.37zM215.99 570.9a5.6 5.6 0 1 0 11.19-0.37 5.6 5.6 0 1 0-11.19 0.37zM231.98 570.37a5.6 5.6 0 1 0 11.19-0.37 5.6 5.6 0 1 0-11.19 0.37z" stroke="rgba(255, 125, 19, 1)" stroke-width="1.49" stroke-dasharray="4, 4"></path></g><defs><mask id="SvgjsMask1132"><rect width="1294" height="688" fill="#ffffff"></rect></mask><linearGradient x1="50%" y1="100%" x2="50%" y2="0%" gradientUnits="userSpaceOnUse" id="SvgjsLinearGradient1133"><stop stop-color="rgba(255, 255, 255, 1)" offset="0"></stop><stop stop-color="rgba(243, 192, 161, 1)" offset="1"></stop></linearGradient><pattern x="0" y="0" width="10.98" height="10.98" patternUnits="userSpaceOnUse" id="SvgjsPattern1135"><path d="M5.49 1L5.49 9.98M1 5.49L9.98 5.49" stroke="rgba(235, 96, 25, 1)" fill="none" stroke-width="3.41"></path></pattern><clipPath id="SvgjsClipPath1134"><circle r="109.8" cx="131.34" cy="266.21"></circle></clipPath><pattern x="0" y="0" width="246.96" height="8.82" patternUnits="userSpaceOnUse" id="SvgjsPattern1137"><rect width="246.96" height="4.41" x="0" y="0" fill="rgba(255, 125, 19, 1)"></rect><rect width="246.96" height="4.41" x="0" y="4.41" fill="rgba(0, 0, 0, 0)"></rect></pattern><clipPath id="SvgjsClipPath1136"><circle r="61.74" cx="1021.22" cy="81.82"></circle></clipPath><pattern x="0" y="0" width="84" height="6" patternUnits="userSpaceOnUse" id="SvgjsPattern1139"><rect width="84" height="3" x="0" y="0" fill="rgba(255, 125, 19, 1)"></rect><rect width="84" height="3" x="0" y="3" fill="rgba(0, 0, 0, 0)"></rect></pattern><clipPath id="SvgjsClipPath1138"><circle r="21" cx="516.4" cy="115.42"></circle></clipPath></defs></svg>