<svg id="visual" viewBox="0 0 1250 690" width="1250" height="690" xmlns="http://www.w3.org/2000/svg" xmlns:xlink="http://www.w3.org/1999/xlink" version="1.1"><rect x="0" y="0" width="1250" height="690" fill="#F3c0a1"></rect><path d="M0 267L52.2 263C104.3 259 208.7 251 312.8 248.8C417 246.7 521 250.3 625.2 262.7C729.3 275 833.7 296 937.8 298C1042 300 1146 283 1198 274.5L1250 266L1250 691L1198 691C1146 691 1042 691 937.8 691C833.7 691 729.3 691 625.2 691C521 691 417 691 312.8 691C208.7 691 104.3 691 52.2 691L0 691Z" fill="#eb6019"></path><path d="M0 390L52.2 383.5C104.3 377 208.7 364 312.8 356.3C417 348.7 521 346.3 625.2 337.5C729.3 328.7 833.7 313.3 937.8 319C1042 324.7 1146 351.3 1198 364.7L1250 378L1250 691L1198 691C1146 691 1042 691 937.8 691C833.7 691 729.3 691 625.2 691C521 691 417 691 312.8 691C208.7 691 104.3 691 52.2 691L0 691Z" fill="#ef7b3c"></path><path d="M0 497L52.2 484.3C104.3 471.7 208.7 446.3 312.8 434C417 421.7 521 422.3 625.2 423.8C729.3 425.3 833.7 427.7 937.8 431.2C1042 434.7 1146 439.3 1198 441.7L1250 444L1250 691L1198 691C1146 691 1042 691 937.8 691C833.7 691 729.3 691 625.2 691C521 691 417 691 312.8 691C208.7 691 104.3 691 52.2 691L0 691Z" fill="#f2935d"></path><path d="M0 499L52.2 509.5C104.3 520 208.7 541 312.8 553C417 565 521 568 625.2 552.7C729.3 537.3 833.7 503.7 937.8 489.2C1042 474.7 1146 479.3 1198 481.7L1250 484L1250 691L1198 691C1146 691 1042 691 937.8 691C833.7 691 729.3 691 625.2 691C521 691 417 691 312.8 691C208.7 691 104.3 691 52.2 691L0 691Z" fill="#f3aa7e"></path><path d="M0 619L52.2 617.5C104.3 616 208.7 613 312.8 606.5C417 600 521 590 625.2 591.8C729.3 593.7 833.7 607.3 937.8 606C1042 604.7 1146 588.3 1198 580.2L1250 572L1250 691L1198 691C1146 691 1042 691 937.8 691C833.7 691 729.3 691 625.2 691C521 691 417 691 312.8 691C208.7 691 104.3 691 52.2 691L0 691Z" fill="#f3c0a1"></path></svg>